<svg width="128" height="128" viewBox="0 0 128 128" fill="none" xmlns="http://www.w3.org/2000/svg">
  <rect width="128" height="128" rx="32" fill="url(#paint0_linear)"/>
  <circle cx="64" cy="46" r="18" fill="rgba(255,255,255,0.16)"/>
  <path d="M42 86C42 73.8497 51.8497 64 64 64C76.1503 64 86 73.8497 86 86V94H74V86C74 80.4772 69.5228 76 64 76C58.4772 76 54 80.4772 54 86V94H42V86Z" fill="white"/>
  <path d="M54 42C54 36.4772 58.4772 32 64 32C69.5228 32 74 36.4772 74 42V48H54V42Z" fill="white"/>
  <defs>
    <linearGradient id="paint0_linear" x1="18" y1="16" x2="114" y2="112" gradientUnits="userSpaceOnUse">
      <stop stop-color="#F472B6"/>
      <stop offset="1" stop-color="#9D174D"/>
    </linearGradient>
  </defs>
</svg>
